# xmcd
#
# Track frame offsets:
#	150
#	13184
#	27301
#	45362
#	62793
#	80811
#	92663
#	109495
#	124948
#	138523
#	154711
#	168963
#	184940
#	199760
#	215061
#	227513
#	238464
#	249265
#	268767
#	287721
#	300636
#	313507
#
# Disc length: 4446 seconds
#
# Revision: 0
# Processed by: cddbd v1.5.2PL0 Copyright (c) Steve Scherf et al.
# Submitted via: EasyCDDAExtractor 11.1.0.1
#
DISCID=41115c16
DTITLE=Various Artist - La Legende Country. CD2
DYEAR=2007
DGENRE=Country
TTITLE0=Dolly Parton - I Will Always Love You
TTITLE1=Williie Nelson - Heart Of Gold
TTITLE2=Chet Atkins and Mark Knopfler - Poor Boy Blues
TTITLE3=Albert Hammond - It never Rains In Southern California
TTITLE4=Rosanne Cash - Runaway Train
TTITLE5=Lacy J.Dalton - Hillbilly Girl With The Blues
TTITLE6=Ricky Scaggs - Waitin' For The Sun To Shine
TTITLE7=Stacy Dean Campbell - One Little Teardrop
TTITLE8=Johnny Cash, Willie Nelson, Waylon Jennings and Kris Kristofferson - Hig
TTITLE8=hwayman
TTITLE9=Indigo Girls - I Don't Wanna Talk About It
TTITLE10=Sweethearts Of The Rodeo - So Sad (To Watch Good Love Go Bad)
TTITLE11=The Kinleys - Just Between You And Me
TTITLE12=Ricky Van Shelton - Wild Man
TTITLE13=Dan Fogelberg - The Outlaw
TTITLE14=Johnny Cash and June Carter - Jackson
TTITLE15=Waylon Jennings - This Time
TTITLE16=Frankie Laine - High Noon (Do Not Forsake Me)
TTITLE17=The Vaughan Brothers - Good Texan
TTITLE18=Bobbie Gentry - Ode To Billie Joe
TTITLE19=Johnny Cash - Man In Black
TTITLE20=Darden Smith - A Place In The Sun
TTITLE21=Mary Chapin Carpenter - I Feel Lucky
EXTD=
EXTT0=
EXTT1=
EXTT2=
EXTT3=
EXTT4=
EXTT5=
EXTT6=
EXTT7=
EXTT8=
EXTT9=
EXTT10=
EXTT11=
EXTT12=
EXTT13=
EXTT14=
EXTT15=
EXTT16=
EXTT17=
EXTT18=
EXTT19=
EXTT20=
EXTT21=
PLAYORDER=
